PathFileType	4	(X/Y/Z)	C:/Users/beibeiliu/ov580/test_trc/User1\sequence.4_training_dense_right.trc
DataRate	CameraRate	NumFrames	NumMarkers	Units	OrigDataRate	OrigDataStartFrame	OrigNumFrames
120	120	8	19	mm	120	95	251
Frame#	Time	ThumbCMC			ThumbMCP			ThumbIP			ThumbTip			IndexMCP			IndexPIP			IndexTip			MiddleMCP			MiddlePIP			MiddleTip			RingMCP			RingPIP			RingTip			PinkyMCP			PinkyPIP			PinkyTip			BackHand1			BackHand2			BackHand3	
		X0	Y0	Z0	X1	Y1	Z1	X2	Y2	Z2	X3	Y3	Z3	X4	Y4	Z4	X5	Y5	Z5	X6	Y6	Z6	X7	Y7	Z7	X8	Y8	Z8	X9	Y9	Z9	X10	Y10	Z10	X11	Y11	Z11	X12	Y12	Z12	X13	Y13	Z13	X14	Y14	Z14	X15	Y15	Z15	X16	Y16	Z16	X17	Y17	Z17	X18	Y18	Z18	
94	0.783333	133.25	79.6269	40.5362	118.649	44.0069	24.2307	118.449	24.2944	-3.94463	142.485	14.1825	-22.9135	112.822	59.979	-34.5397	115.299	30.1347	-20.3335	124.24	46.7155	8.63611	133.586	53.4719	-43.2495	135.445	26.3301	-19.8895	147.043	53.7704	5.59304	156.774	42.299	-38.9843	157.329	23.8256	-13.1348	165.357	47.1604	9.71111	178.056	44.7642	-27.4579	170.735	31.1064	-2.08367	173.223	60.8704	16.6817	180.679	94.6654	-11.5021	192.219	105.378	19.7514	152.099	111.332	18.2076	
95	0.791667	128.112	73.4841	39.335	118.144	36.5504	23.7581	122.605	16.9308	-5.14217	145.369	11.431	-19.9578	110.388	54.5993	-33.0274	118.059	23.0457	-21.5951	126.12	39.8698	7.45648	137.944	49.1019	-43.6872	138.001	19.9027	-21.6776	149.692	46.5836	5.06791	157.314	41.6972	-39.0255	158.657	20.3068	-13.8019	165.209	44.7371	9.33264	179.234	41.2339	-28.2482	175.269	29.3129	-0.647971	174.426	55.7692	14.8403	175.024	95.8831	-11.0913	187.729	107.249	20.0675	149.277	105.377	12.7255	
96	0.8	125.545	69.3961	39.484	122.158	34.0388	20.3594	125.606	14.9848	-0.635397	148.372	6.57602	-19.71	109.649	47.4521	-33.0062	115.987	17.441	-23.0931	130.859	34.4666	6.46511	134.101	39.7822	-42.6287	143.183	15.5465	-21.2127	148.358	40.6954	6.32693	161.362	38.533	-38.4771	161.923	17.9976	-9.62362	161.819	44.0338	10.9641	185.139	39.5558	-29.3658	174.335	28.1623	-2.03775	173.85	50.7805	17.2592	172.184	93.2839	-8.79961	181.589	106.143	20.6381	145.776	103.082	17.4222	
97	0.808333	125.151	64.6533	40.5717	122.573	30.923	23.2115	124.49	8.38127	2.31144	150.035	3.69342	-17.4105	113.042	42.6846	-33.7868	120.617	13.5593	-21.4784	129.98	31.6089	7.60962	134.069	35.2629	-42.0324	140.552	11.484	-20.0321	148.526	40.4011	7.50213	160.664	31.3181	-37.0294	165.484	13.8634	-11.8771	167.713	39.5735	10.8458	181.762	37.9545	-28.1028	180.388	23.6802	-0.0313739	176.665	50.9859	18.4219	172.079	89.6317	-11.6562	180.417	105.438	19.3038	142.036	98.6382	15.6247	
98	0.816667	125.839	63.1426	44.1712	121.734	25.8588	28.6371	128.053	8.08683	4.47051	151.422	-1.65504	-16.4056	113.901	37.8345	-32.6716	123.927	9.32202	-20.4935	127.573	28.1558	11.2339	137.057	31.6778	-41.4305	144.125	7.80811	-15.5698	147.745	34.3856	9.04165	161.882	31.3403	-36.0165	164.873	10.8474	-10.5801	166.699	35.0674	11.9004	186.602	35.6946	-28.2165	176.423	22.0067	0.0355714	174.81	47.1992	16.7152	168.832	87.4775	-8.75523	181.414	103.657	21.7783	138.936	94.4421	14.3407	
99	0.825	124.15	60.8544	42.4716	122.726	23.7074	28.1438	128.234	3.14072	3.27016	152.518	-5.52635	-15.3105	111.126	32.8161	-29.4902	120.199	4.6228	-19.0902	128.445	26.1449	11.485	134.042	27.0998	-38.5082	143.515	4.40844	-15.9092	146.69	33.0526	10.8299	160.639	25.3959	-33.6631	166.79	8.52641	-6.02048	168.635	34.5744	13.2305	185.303	29.2736	-26.2795	182.056	17.5996	2.23555	173.417	45.1024	19.642	169.082	82.5579	-11.5275	181.514	101.506	19.684	139.743	91.0655	15.5077	
100	0.833333	125.315	57.9188	42.8206	120.835	18.3198	29.8559	128.807	-1.79135	8.97113	153.013	-4.67524	-11.1642	114.66	27.4516	-29.9805	123.251	-0.747304	-14.0915	130.521	20.349	11.7945	137.617	23.7086	-36.5166	146.712	1.27099	-11.9792	148.408	30.0743	11.6682	161.691	23.6118	-33.3005	164.769	4.62578	-4.15722	165.737	35.3086	15.3222	183.516	29.7956	-24.6971	178.49	15.1645	0.91002	175.507	42.499	20.6082	165.476	80.2929	-8.77318	179.13	98.5417	18.944	138.429	89.6326	14.42	
101	0.841667	121.773	51.5182	41.8913	124.233	15.282	28.0298	130.527	-7.39632	5.90641	154.076	-14.0979	-8.65569	112.115	18.9525	-27.435	124.179	-5.87982	-12.6	129.768	19.7158	14.9534	138.636	17.0404	-35.3645	146.022	-3.24695	-11.403	147.154	30.0009	13.9107	159.336	18.7026	-31.0169	166.019	2.011	-2.8655	164.652	30.0065	17.1497	182.332	28.7841	-22.4604	180.138	14.353	4.17027	173.255	40.3396	22.5258	166.72	78.291	-6.13705	174.092	95.2526	23.1058	137.882	84.9059	14.6395	
